<svg id="eGHI3RtKnjW1" xmlns="http://www.w3.org/2000/svg" xmlns:xlink="http://www.w3.org/1999/xlink" viewBox="0 0 300 201" shape-rendering="geometricPrecision" text-rendering="geometricPrecision"><g transform="matrix(1.181558 0 0 1.181558-27.2337-76.7337)"><rect width="52.097357" height="52.097357" rx="0" ry="0" transform="matrix(.892094 0 0 0.892094 46.883906 86.830997)" fill="none" stroke="#000" stroke-width="15"/><rect width="52.097357" height="52.097357" rx="0" ry="0" transform="matrix(.892094 0 0 0.892094 46.849 166.693265)" fill="none" stroke="#000" stroke-width="15"/><rect width="52.097357" height="52.097357" rx="0" ry="0" transform="matrix(.892094 0 0 0.892094 126.709772 166.693265)" fill="none" stroke="#000" stroke-width="15"/><rect width="52.097357" height="52.097357" rx="0" ry="0" transform="matrix(.892094 0 0 0.892094 206.640356 166.693265)" fill="none" stroke="#000" stroke-width="15"/><rect width="52.097357" height="52.097357" rx="0" ry="0" transform="matrix(.892094 0 0 0.892094 126.744678 86.830997)" fill="none" stroke="#000" stroke-width="15"/><rect width="52.097357" height="52.097357" rx="0" ry="0" transform="matrix(.892094 0 0 0.892094 206.675262 86.830997)" fill="none" stroke="#000" stroke-width="15"/></g></svg>
